<svg version="1.1" id="Layer_1" xmlns="http://www.w3.org/2000/svg" x="0" y="0" viewBox="0 0 1021 226.2" style="enable-background:new 0 0 1021 226.2" xml:space="preserve"><style>.st1{fill:#d21123}.st2{fill:#6b7280}</style><circle cx="113.1" cy="113.1" r="112.6"/><path d="M113.1 1c29.9 0 58.1 11.7 79.3 32.8 21.2 21.2 32.8 49.3 32.8 79.3s-11.7 58.1-32.8 79.3c-21.2 21.2-49.3 32.8-79.3 32.8S55 213.5 33.8 192.3C12.7 171.2 1 143 1 113.1S12.7 55 33.8 33.8C55 12.7 83.1 1 113.1 1m0-1C50.6 0 0 50.6 0 113.1s50.6 113.1 113.1 113.1 113.1-50.6 113.1-113.1S175.5 0 113.1 0z"/><path d="M100.8 158.9V146h-.3c-.9 2.2-2.2 4.2-3.9 6-1.7 1.8-3.7 3.4-5.8 4.7-2.2 1.3-4.5 2.3-7 3-2.5.7-5 1.1-7.4 1.1-5.2 0-9.7-.9-13.5-2.8-3.8-1.9-7-4.5-9.5-7.7-2.5-3.3-4.4-7.1-5.6-11.4-1.2-4.3-1.8-8.9-1.8-13.7 0-4.8.6-9.4 1.8-13.7 1.2-4.3 3.1-8.1 5.6-11.4 2.5-3.3 5.7-5.9 9.5-7.8 3.8-1.9 8.3-2.9 13.5-2.9 2.5 0 5 .3 7.4.9 2.4.6 4.7 1.6 6.8 2.8 2.1 1.3 4 2.8 5.6 4.7 1.6 1.8 2.9 4 3.7 6.4h.3V65.1h8.3v93.8h-7.7zm-45.4-23.4c.8 3.5 2.1 6.5 3.9 9.3 1.8 2.7 4.1 4.9 6.9 6.6 2.8 1.7 6.2 2.6 10.1 2.6 4.4 0 8.1-.9 11.1-2.6 3-1.7 5.5-3.9 7.4-6.6 1.9-2.7 3.2-5.8 4.1-9.3.8-3.5 1.2-6.9 1.2-10.4s-.4-7-1.2-10.4c-.8-3.5-2.2-6.5-4.1-9.3-1.9-2.7-4.3-4.9-7.4-6.6-3-1.7-6.7-2.6-11.1-2.6-3.9 0-7.3.9-10.1 2.6-2.8 1.7-5.1 3.9-6.9 6.6-1.8 2.7-3.1 5.8-3.9 9.3-.8 3.5-1.2 6.9-1.2 10.4 0 3.4.4 6.9 1.2 10.4z" style="fill:#fff"/><path class="st1" d="M179.3 139.5c-.6 3.7-2 7.1-4.2 10.3-2.2 3.2-5.3 5.9-9.5 8-4.1 2.1-9.7 3.2-16.7 3.2-3.9 0-7.7-.5-11.4-1.6s-7-2.8-9.8-5.1c-2.9-2.3-5.2-5.3-7-8.9-1.8-3.6-2.6-8-2.6-13.2V124h18.6v4.2c0 2.3.2 4.4.5 6.3.3 1.9 1 3.6 1.8 4.9.9 1.4 2.1 2.4 3.6 3.2 1.5.8 3.5 1.2 6 1.2 2.7 0 4.8-.5 6.3-1.4 1.5-1 2.6-2.2 3.2-3.7.7-1.5 1.1-3.2 1.2-5 .1-1.8.2-3.5.2-5.2V65.1h20.6v64.2c.2 3.1-.2 6.5-.8 10.2z"/><path class="st2" d="M290.2.1h5v226h-5z"/><g><path d="M374.5 63.8v-4.2h-.1c-.3.7-.7 1.4-1.3 2-.6.6-1.2 1.1-1.9 1.5-.7.4-1.5.7-2.3 1-.8.2-1.6.3-2.4.3-1.7 0-3.1-.3-4.4-.9s-2.3-1.4-3.1-2.5-1.4-2.3-1.8-3.7c-.4-1.4-.6-2.9-.6-4.5s.2-3 .6-4.5c.4-1.4 1-2.6 1.8-3.7s1.9-1.9 3.1-2.5c1.2-.6 2.7-.9 4.4-.9.8 0 1.6.1 2.4.3.8.2 1.5.5 2.2.9s1.3.9 1.8 1.5.9 1.3 1.2 2.1h.1V33.4h2.7v30.4h-2.4zm-14.7-7.6c.3 1.1.7 2.1 1.3 3 .6.9 1.3 1.6 2.2 2.2.9.6 2 .8 3.3.8 1.4 0 2.6-.3 3.6-.8 1-.6 1.8-1.3 2.4-2.2.6-.9 1.1-1.9 1.3-3 .3-1.1.4-2.3.4-3.4s-.1-2.3-.4-3.4c-.3-1.1-.7-2.1-1.3-3-.6-.9-1.4-1.6-2.4-2.2-1-.6-2.2-.8-3.6-.8-1.3 0-2.4.3-3.3.8-.9.6-1.7 1.3-2.2 2.2-.6.9-1 1.9-1.3 3-.3 1.1-.4 2.3-.4 3.4 0 1.2.1 2.3.4 3.4zM384.6 41.9V47h.1c.7-1.8 1.7-3.2 3.2-4.1 1.4-1 3.1-1.4 5.1-1.3v2.7c-1.2-.1-2.3.1-3.3.5s-1.9.9-2.6 1.6c-.7.7-1.3 1.6-1.7 2.5-.4 1-.6 2.1-.6 3.2v11.7h-2.7v-22h2.5zM398.2 33.4v4.3h-2.7v-4.3h2.7zm0 8.5v22h-2.7v-22h2.7zM403.9 41.9l6.9 19.3h.1l6.8-19.3h2.8l-8.2 22h-2.9l-8.5-22h3zM425.1 56.6c.3 1 .7 2 1.3 2.8.6.8 1.3 1.5 2.3 2 .9.5 2 .8 3.3.8 2 0 3.5-.5 4.6-1.5 1.1-1 1.9-2.4 2.3-4.1h2.7c-.6 2.5-1.6 4.4-3.1 5.8-1.5 1.4-3.7 2-6.5 2-1.7 0-3.2-.3-4.5-.9s-2.3-1.4-3.1-2.5c-.8-1.1-1.4-2.3-1.8-3.7-.4-1.4-.6-2.9-.6-4.5 0-1.4.2-2.9.6-4.3.4-1.4 1-2.6 1.8-3.7s1.8-2 3.1-2.6c1.3-.7 2.8-1 4.5-1 1.8 0 3.3.4 4.5 1.1 1.2.7 2.3 1.6 3 2.8.8 1.1 1.3 2.5 1.7 4 .3 1.5.5 3 .4 4.5h-16.9c0 .9.1 1.9.4 3zm13.3-8.2c-.3-.9-.8-1.8-1.4-2.5-.6-.7-1.3-1.3-2.2-1.7-.9-.4-1.8-.7-2.9-.7-1.1 0-2.1.2-2.9.7-.9.4-1.6 1-2.2 1.7-.6.7-1.1 1.6-1.4 2.5-.4 1-.6 1.9-.7 2.9h14.2c0-1-.2-2-.5-2.9z"/><path class="st1" d="M463.1 57.5c-.2 1.2-.7 2.3-1.4 3.3s-1.7 1.9-3.1 2.6c-1.3.7-3.1 1-5.4 1-1.3 0-2.5-.2-3.7-.5-1.2-.4-2.3-.9-3.2-1.7-.9-.8-1.7-1.7-2.3-2.9-.6-1.2-.9-2.6-.9-4.3v-2.6h6v1.4c0 .7.1 1.4.2 2 .1.6.3 1.2.6 1.6.3.4.7.8 1.2 1 .5.3 1.1.4 1.9.4.9 0 1.6-.2 2-.5.5-.3.8-.7 1-1.2.2-.5.3-1 .4-1.6 0-.6.1-1.1.1-1.7V33.4h6.7v20.8c.2 1 .1 2.1-.1 3.3zM466.7 48.1c.5-1.4 1.3-2.7 2.3-3.7 1-1 2.2-1.8 3.6-2.3 1.4-.6 3-.8 4.7-.8 1.7 0 3.3.3 4.7.8 1.4.6 2.6 1.3 3.6 2.3 1 1 1.8 2.2 2.3 3.7.5 1.4.8 3 .8 4.8 0 1.8-.3 3.4-.8 4.8s-1.3 2.6-2.3 3.6c-1 1-2.2 1.8-3.6 2.3-1.4.5-3 .8-4.7.8-1.7 0-3.3-.3-4.7-.8-1.4-.5-2.6-1.3-3.6-2.3-1-1-1.8-2.2-2.3-3.6-.5-1.4-.8-3-.8-4.8 0-1.8.2-3.4.8-4.8zm5.5 7.3c.2.8.5 1.6.9 2.3.4.7 1 1.2 1.6 1.6.7.4 1.5.6 2.6.6s1.9-.2 2.6-.6c.7-.4 1.2-.9 1.7-1.6.4-.7.7-1.4.9-2.3.2-.8.3-1.7.3-2.6 0-.9-.1-1.7-.3-2.6s-.5-1.6-.9-2.3c-.4-.7-1-1.2-1.7-1.6-.7-.4-1.6-.6-2.6-.6s-1.9.2-2.6.6c-.7.4-1.2.9-1.6 1.6-.4.7-.7 1.4-.9 2.3s-.3 1.7-.3 2.6c0 .9.1 1.8.3 2.6zM496.5 33.4v11.5h.1c.8-1.3 1.7-2.2 2.9-2.8s2.4-.9 3.5-.9c1.6 0 2.9.2 4 .7 1 .4 1.9 1.1 2.4 1.8.6.8 1 1.7 1.3 2.9.2 1.1.4 2.4.4 3.7v13.5h-6V51.4c0-1.8-.3-3.2-.9-4.1-.6-.9-1.6-1.3-3-1.3-1.6 0-2.8.5-3.6 1.5-.7 1-1.1 2.6-1.1 4.8v11.5h-6V33.4h6zM519.3 41.8v3.1h.1c.8-1.3 1.8-2.2 3-2.8 1.2-.6 2.5-.9 3.7-.9 1.6 0 2.9.2 4 .7 1 .4 1.9 1.1 2.4 1.8.6.8 1 1.7 1.3 2.9.2 1.1.4 2.4.4 3.7v13.5h-6V51.4c0-1.8-.3-3.2-.9-4.1-.6-.9-1.6-1.3-3-1.3-1.6 0-2.8.5-3.6 1.5-.7 1-1.1 2.6-1.1 4.8v11.5h-6v-22h5.7zM541.8 58.4c.3.5.6.9 1 1.1.4.3.9.5 1.5.7.6.1 1.1.2 1.7.2.4 0 .9 0 1.3-.1.5-.1.9-.3 1.3-.5s.7-.5 1-.9c.3-.4.4-.8.4-1.3 0-.9-.6-1.6-1.8-2-1.2-.5-2.9-.9-5-1.4-.9-.2-1.7-.4-2.6-.7-.8-.3-1.6-.6-2.2-1.1-.7-.4-1.2-1-1.6-1.7-.4-.7-.6-1.5-.6-2.4 0-1.4.3-2.6.8-3.5.6-.9 1.3-1.6 2.2-2.2.9-.5 1.9-.9 3.1-1.1 1.1-.2 2.3-.3 3.5-.3s2.3.1 3.5.3c1.1.2 2.1.6 3 1.2.9.5 1.6 1.3 2.2 2.2.6.9.9 2 1 3.4h-5.8c-.1-1.2-.5-2-1.3-2.4-.8-.4-1.7-.6-2.8-.6-.3 0-.7 0-1.1.1-.4 0-.8.1-1.1.3-.3.1-.6.3-.8.6-.2.3-.3.6-.3 1.1 0 .5.2 1 .6 1.3.4.3.9.6 1.6.8s1.4.4 2.2.6 1.7.4 2.5.6c.9.2 1.7.4 2.6.7.8.3 1.6.7 2.2 1.1.7.5 1.2 1.1 1.6 1.7.4.7.6 1.6.6 2.6 0 1.4-.3 2.7-.9 3.6-.6 1-1.3 1.8-2.3 2.4-.9.6-2 1-3.2 1.3-1.2.2-2.4.4-3.7.4-1.3 0-2.5-.1-3.7-.4s-2.3-.7-3.3-1.3c-1-.6-1.7-1.4-2.3-2.4-.6-1-.9-2.2-1-3.7h5.8c-.2.6-.1 1.2.2 1.7zM557.6 48.1c.5-1.4 1.3-2.7 2.3-3.7 1-1 2.2-1.8 3.6-2.3 1.4-.6 3-.8 4.7-.8 1.7 0 3.3.3 4.7.8 1.4.6 2.6 1.3 3.6 2.3 1 1 1.8 2.2 2.3 3.7.5 1.4.8 3 .8 4.8 0 1.8-.3 3.4-.8 4.8s-1.3 2.6-2.3 3.6c-1 1-2.2 1.8-3.6 2.3-1.4.5-3 .8-4.7.8-1.7 0-3.3-.3-4.7-.8-1.4-.5-2.6-1.3-3.6-2.3-1-1-1.8-2.2-2.3-3.6-.5-1.4-.8-3-.8-4.8 0-1.8.2-3.4.8-4.8zm5.5 7.3c.2.8.5 1.6.9 2.3.4.7 1 1.2 1.6 1.6.7.4 1.5.6 2.6.6s1.9-.2 2.6-.6c.7-.4 1.2-.9 1.7-1.6.4-.7.7-1.4.9-2.3.2-.8.3-1.7.3-2.6 0-.9-.1-1.7-.3-2.6s-.5-1.6-.9-2.3c-.4-.7-1-1.2-1.7-1.6-.7-.4-1.6-.6-2.6-.6s-1.9.2-2.6.6c-.7.4-1.2.9-1.6 1.6-.4.7-.7 1.4-.9 2.3s-.3 1.7-.3 2.6c0 .9.1 1.8.3 2.6zM587.1 41.8v3.1h.1c.8-1.3 1.8-2.2 3-2.8 1.2-.6 2.5-.9 3.7-.9 1.6 0 2.9.2 4 .7 1 .4 1.9 1.1 2.4 1.8.6.8 1 1.7 1.3 2.9.2 1.1.4 2.4.4 3.7v13.5h-6V51.4c0-1.8-.3-3.2-.9-4.1-.6-.9-1.6-1.3-3-1.3-1.6 0-2.8.5-3.6 1.5-.7 1-1.1 2.6-1.1 4.8v11.5h-6v-22h5.7zM611.1 33.4v6.5c0 .9-.1 1.8-.4 2.6-.3.8-.7 1.5-1.3 2.2-.5.6-1.2 1.1-1.9 1.6-.8.4-1.6.7-2.4.8v-2.8c1.1-.4 1.8-.9 2.2-1.6.4-.7.6-1.6.6-2.7h-2.8v-6.6h6zM616.1 58.4c.3.5.6.9 1 1.1.4.3.9.5 1.5.7.6.1 1.1.2 1.7.2.4 0 .9 0 1.3-.1.5-.1.9-.3 1.3-.5s.7-.5 1-.9c.3-.4.4-.8.4-1.3 0-.9-.6-1.6-1.8-2-1.2-.5-2.9-.9-5-1.4-.9-.2-1.7-.4-2.6-.7-.8-.3-1.6-.6-2.2-1.1-.7-.4-1.2-1-1.6-1.7-.4-.7-.6-1.5-.6-2.4 0-1.4.3-2.6.8-3.5.6-.9 1.3-1.6 2.2-2.2.9-.5 1.9-.9 3.1-1.1 1.1-.2 2.3-.3 3.5-.3s2.3.1 3.5.3c1.1.2 2.1.6 3 1.2.9.5 1.6 1.3 2.2 2.2.6.9.9 2 1 3.4H624c-.1-1.2-.5-2-1.3-2.4-.8-.4-1.7-.6-2.8-.6-.3 0-.7 0-1.1.1-.4 0-.8.1-1.1.3-.3.1-.6.3-.8.6-.2.3-.3.6-.3 1.1 0 .5.2 1 .6 1.3.4.3.9.6 1.6.8s1.4.4 2.2.6 1.7.4 2.5.6c.9.2 1.7.4 2.6.7.8.3 1.6.7 2.2 1.1.7.5 1.2 1.1 1.6 1.7.4.7.6 1.6.6 2.6 0 1.4-.3 2.7-.9 3.6-.6 1-1.3 1.8-2.3 2.4-.9.6-2 1-3.2 1.3-1.2.2-2.4.4-3.7.4-1.3 0-2.5-.1-3.7-.4s-2.3-.7-3.3-1.3c-1-.6-1.7-1.4-2.3-2.4-.6-1-.9-2.2-1-3.7h5.8c-.2.6 0 1.2.2 1.7z"/><path class="st2" d="M426.6 84.8v83.1h-16v-35.5h-37.7v35.5h-16.1V84.8h16.1v33.6h37.7V84.8h16zM469.7 169c-4.9 0-9.4-.8-13.3-2.5-4-1.7-7.4-3.9-10.2-6.8-2.8-2.9-5-6.2-6.4-9.9-1.5-3.7-2.2-7.7-2.2-11.9 0-5.7 1.3-11 3.9-15.8 2.6-4.8 6.3-8.7 11.1-11.6 4.8-2.9 10.5-4.3 17.3-4.3 6.6 0 12.3 1.4 17.1 4.3 4.8 2.9 8.4 6.7 11 11.4 2.6 4.7 3.9 9.9 3.9 15.4 0 1 0 2-.1 2.8-.1.9-.2 1.6-.2 2.3h-47.3c.2 3.2 1.1 5.9 2.6 8.2s3.5 4 5.8 5.2c2.4 1.2 4.9 1.8 7.5 1.8 3.2 0 6.2-.8 9-2.3 2.8-1.5 4.7-3.6 5.7-6.1l13.3 3.7c-1.4 3.1-3.5 5.9-6.2 8.3-2.7 2.4-6 4.3-9.7 5.7-3.8 1.4-8 2.1-12.6 2.1zm-16-36.4h32.1c-.3-3-1.2-5.7-2.6-7.9-1.4-2.2-3.3-4-5.7-5.3s-5-1.9-7.8-1.9-5.4.6-7.7 1.9c-2.3 1.3-4.2 3-5.6 5.3-1.5 2.2-2.4 4.9-2.7 7.9zM511.3 82.4H527v65.8c0 2.9.5 4.8 1.4 5.8s2.2 1.5 3.7 1.5c1.4 0 2.7-.2 4-.5 1.3-.3 2.4-.7 3.5-1.3l2.1 12.1c-2.1 1-4.5 1.8-7.3 2.3-2.8.5-5.3.8-7.7.8-4.9 0-8.7-1.3-11.4-3.9-2.7-2.6-4-6.3-4-11.1V82.4zM585.2 169c-4.8 0-9-1.1-12.6-3.2-3.7-2.2-6.5-5-8.5-8.6v35.6h-15.6v-85.6h13.7v10.5c2.3-3.5 5.3-6.3 8.9-8.4 3.6-2 7.7-3.1 12.3-3.1 4.1 0 7.9.8 11.4 2.4 3.5 1.6 6.5 3.9 9.1 6.8 2.6 2.9 4.6 6.2 6 10 1.4 3.8 2.1 7.8 2.1 12 0 5.9-1.2 11.2-3.5 16-2.3 4.8-5.5 8.6-9.5 11.4-3.9 2.8-8.6 4.2-13.8 4.2zm-5.3-13.3c2.3 0 4.5-.5 6.5-1.5s3.7-2.3 5.1-4c1.4-1.7 2.5-3.7 3.3-5.9.8-2.3 1.2-4.6 1.2-6.9 0-2.4-.4-4.8-1.2-6.9-.8-2.2-2-4.1-3.6-5.7-1.6-1.6-3.4-2.9-5.4-3.8-2.1-.9-4.3-1.4-6.8-1.4-1.4 0-2.9.2-4.4.7s-3 1.2-4.4 2.1c-1.4.9-2.6 2-3.6 3.1-1 1.2-1.8 2.5-2.5 4v14.2c1 2.2 2.3 4.2 3.9 6.1 1.6 1.8 3.5 3.3 5.6 4.3 2 1 4.2 1.6 6.3 1.6zM647.2 125.6c0-5.1.9-10.2 2.8-15 1.8-4.9 4.5-9.3 8.1-13.3 3.5-4 7.9-7.2 12.9-9.5 5.1-2.4 10.8-3.6 17.2-3.6 7.6 0 14.3 1.7 19.8 5 5.6 3.4 9.7 7.7 12.3 13.1l-12.3 8.5c-1.4-3.1-3.2-5.6-5.5-7.4-2.3-1.8-4.7-3.1-7.3-3.9-2.6-.8-5.1-1.2-7.5-1.2-4.1 0-7.6.8-10.6 2.5-3 1.6-5.5 3.8-7.5 6.4-2 2.7-3.5 5.6-4.5 8.9-1 3.3-1.5 6.6-1.5 9.9 0 3.6.6 7.1 1.8 10.5s2.8 6.4 5 9c2.1 2.6 4.7 4.7 7.7 6.2s6.3 2.3 9.9 2.3c2.5 0 5.1-.4 7.7-1.3 2.7-.9 5.1-2.2 7.4-4.1 2.3-1.9 4.1-4.3 5.5-7.4l13.1 7.7c-1.7 4.1-4.4 7.6-8.1 10.5-3.7 2.9-7.8 5.1-12.4 6.6-4.6 1.5-9.1 2.2-13.6 2.2-5.9 0-11.3-1.2-16.2-3.7-4.9-2.5-9.1-5.7-12.7-9.8-3.6-4.1-6.4-8.7-8.4-13.8-2.1-4.9-3.1-10.1-3.1-15.3zM759.2 169c-4.9 0-9.4-.8-13.3-2.5-4-1.7-7.4-3.9-10.2-6.8-2.8-2.9-5-6.2-6.4-9.9-1.5-3.7-2.2-7.7-2.2-11.9 0-5.7 1.3-11 3.9-15.8 2.6-4.8 6.3-8.7 11.1-11.6s10.5-4.3 17.3-4.3c6.6 0 12.3 1.4 17.1 4.3 4.8 2.9 8.4 6.7 11 11.4 2.6 4.7 3.9 9.9 3.9 15.4 0 1 0 2-.1 2.8-.1.9-.2 1.6-.2 2.3h-47.3c.2 3.2 1.1 5.9 2.6 8.2 1.5 2.2 3.5 4 5.8 5.2 2.4 1.2 4.9 1.8 7.5 1.8 3.2 0 6.2-.8 9-2.3 2.8-1.5 4.7-3.6 5.7-6.1l13.3 3.7c-1.4 3.1-3.5 5.9-6.2 8.3-2.7 2.4-6 4.3-9.7 5.7-3.8 1.4-8 2.1-12.6 2.1zm-16-36.4h32.1c-.3-3-1.2-5.7-2.6-7.9-1.4-2.2-3.3-4-5.7-5.3s-5-1.9-7.8-1.9-5.4.6-7.7 1.9c-2.3 1.3-4.2 3-5.6 5.3-1.6 2.2-2.4 4.9-2.7 7.9zM857.8 167.8h-15.7v-33.9c0-4.8-.8-8.4-2.5-10.6-1.7-2.2-4.1-3.3-7.2-3.3-2.1 0-4.2.5-6.4 1.6-2.1 1.1-4.1 2.5-5.7 4.4-1.7 1.9-3 4-3.9 6.5v35.4h-15.6v-60.7H815v11.3c1.6-2.6 3.5-4.8 6-6.6 2.4-1.8 5.2-3.2 8.3-4.2 3.1-1 6.5-1.5 10.1-1.5 3.8 0 7 .7 9.4 2s4.3 3.2 5.6 5.5c1.3 2.3 2.2 4.9 2.7 7.7s.8 5.6.8 8.5v37.9zM907.9 164.8c-1.4.6-3 1.3-4.9 1.9-1.8.7-3.8 1.2-6 1.6-2.1.4-4.3.6-6.5.6-3 0-5.7-.5-8.1-1.5-2.4-1-4.3-2.6-5.8-4.8-1.4-2.2-2.2-5.1-2.2-8.6v-35h-8v-11.9h8V87.2h15.8v19.9h12.9V119h-12.9v29.7c.1 2.1.7 3.6 1.8 4.6 1.1 1 2.5 1.4 4.2 1.4 1.6 0 3.1-.3 4.7-.9 1.6-.6 2.8-1.1 3.9-1.6l3.1 12.6zM952.7 120.1c-4.8.1-9.1 1-12.9 2.7-3.7 1.8-6.5 4.3-8.2 7.8v37.2H916v-60.7h14.4v12.5c2.2-4.2 5-7.5 8.4-9.9 3.4-2.4 7-3.7 10.7-4 .8.1 1.4.1 1.9.1s.9 0 1.3.2v14.1zM989 169c-4.9 0-9.4-.8-13.3-2.5-4-1.7-7.4-3.9-10.2-6.8-2.8-2.9-5-6.2-6.4-9.9-1.5-3.7-2.2-7.7-2.2-11.9 0-5.7 1.3-11 3.9-15.8 2.6-4.8 6.3-8.7 11.1-11.6s10.5-4.3 17.3-4.3c6.6 0 12.3 1.4 17.1 4.3 4.8 2.9 8.4 6.7 11 11.4 2.6 4.7 3.9 9.9 3.9 15.4 0 1 0 2-.1 2.8-.1.9-.2 1.6-.2 2.3h-47.3c.2 3.2 1.1 5.9 2.6 8.2 1.5 2.2 3.5 4 5.8 5.2 2.4 1.2 4.9 1.8 7.5 1.8 3.2 0 6.2-.8 9-2.3 2.8-1.5 4.7-3.6 5.7-6.1l13.3 3.7c-1.4 3.1-3.5 5.9-6.2 8.3-2.7 2.4-6 4.3-9.7 5.7-3.8 1.4-8 2.1-12.6 2.1zm-16.1-36.4h32.1c-.3-3-1.2-5.7-2.6-7.9-1.4-2.2-3.3-4-5.7-5.3s-5-1.9-7.8-1.9-5.4.6-7.7 1.9c-2.3 1.3-4.2 3-5.6 5.3-1.5 2.2-2.3 4.9-2.7 7.9z"/></g></svg>