<?xml version="1.0" encoding="utf-8"?>
<!-- Generator: Adobe Illustrator 24.0.1, SVG Export Plug-In . SVG Version: 6.00 Build 0)  -->
<svg version="1.1" id="Layer_1" xmlns="http://www.w3.org/2000/svg" xmlns:xlink="http://www.w3.org/1999/xlink" x="0px" y="0px"
	 viewBox="0 0 1021 226.2" style="enable-background:new 0 0 1021 226.2;" xml:space="preserve">
<style type="text/css">
	.st0{fill:#FFFFFF;}
	.st1{fill:#D21123;}
	.st2{fill:#6B7280;}
</style>
<g>
	<g>
		<circle cx="113.1" cy="113.1" r="112.6"/>
		<path d="M113.1,1c29.9,0,58.1,11.7,79.3,32.8c21.2,21.2,32.8,49.3,32.8,79.3s-11.7,58.1-32.8,79.3c-21.2,21.2-49.3,32.8-79.3,32.8
			S55,213.5,33.8,192.3C12.7,171.2,1,143,1,113.1S12.7,55,33.8,33.8C55,12.7,83.1,1,113.1,1 M113.1,0C50.6,0,0,50.6,0,113.1
			s50.6,113.1,113.1,113.1s113.1-50.6,113.1-113.1S175.5,0,113.1,0L113.1,0z"/>
	</g>
	<g>
		<path class="st0" d="M100.8,158.9V146h-0.3c-0.9,2.2-2.2,4.2-3.9,6c-1.7,1.8-3.7,3.4-5.8,4.7c-2.2,1.3-4.5,2.3-7,3
			c-2.5,0.7-5,1.1-7.4,1.1c-5.2,0-9.7-0.9-13.5-2.8c-3.8-1.9-7-4.5-9.5-7.7c-2.5-3.3-4.4-7.1-5.6-11.4c-1.2-4.3-1.8-8.9-1.8-13.7
			c0-4.8,0.6-9.4,1.8-13.7c1.2-4.3,3.1-8.1,5.6-11.4c2.5-3.3,5.7-5.9,9.5-7.8c3.8-1.9,8.3-2.9,13.5-2.9c2.5,0,5,0.3,7.4,0.9
			c2.4,0.6,4.7,1.6,6.8,2.8c2.1,1.3,4,2.8,5.6,4.7c1.6,1.8,2.9,4,3.7,6.4h0.3V65.1h8.3v93.8H100.8z M55.4,135.5
			c0.8,3.5,2.1,6.5,3.9,9.3c1.8,2.7,4.1,4.9,6.9,6.6c2.8,1.7,6.2,2.6,10.1,2.6c4.4,0,8.1-0.9,11.1-2.6c3-1.7,5.5-3.9,7.4-6.6
			c1.9-2.7,3.2-5.8,4.1-9.3c0.8-3.5,1.2-6.9,1.2-10.4c0-3.5-0.4-7-1.2-10.4c-0.8-3.5-2.2-6.5-4.1-9.3c-1.9-2.7-4.3-4.9-7.4-6.6
			c-3-1.7-6.7-2.6-11.1-2.6c-3.9,0-7.3,0.9-10.1,2.6c-2.8,1.7-5.1,3.9-6.9,6.6c-1.8,2.7-3.1,5.8-3.9,9.3c-0.8,3.5-1.2,6.9-1.2,10.4
			C54.2,128.5,54.6,132,55.4,135.5z"/>
		<path class="st1" d="M179.3,139.5c-0.6,3.7-2,7.1-4.2,10.3c-2.2,3.2-5.3,5.9-9.5,8c-4.1,2.1-9.7,3.2-16.7,3.2
			c-3.9,0-7.7-0.5-11.4-1.6c-3.7-1.1-7-2.8-9.8-5.1c-2.9-2.3-5.2-5.3-7-8.9c-1.8-3.6-2.6-8-2.6-13.2V124h18.6v4.2
			c0,2.3,0.2,4.4,0.5,6.3c0.3,1.9,1,3.6,1.8,4.9c0.9,1.4,2.1,2.4,3.6,3.2c1.5,0.8,3.5,1.2,6,1.2c2.7,0,4.8-0.5,6.3-1.4
			c1.5-1,2.6-2.2,3.2-3.7c0.7-1.5,1.1-3.2,1.2-5c0.1-1.8,0.2-3.5,0.2-5.2V65.1h20.6v64.2C180.3,132.4,179.9,135.8,179.3,139.5z"/>
	</g>
</g>
<rect x="290.2" y="0.1" class="st2" width="5" height="226"/>
<g>
	<path d="M374.5,63.8v-4.2h-0.1c-0.3,0.7-0.7,1.4-1.3,2c-0.6,0.6-1.2,1.1-1.9,1.5c-0.7,0.4-1.5,0.7-2.3,1c-0.8,0.2-1.6,0.3-2.4,0.3
		c-1.7,0-3.1-0.3-4.4-0.9s-2.3-1.4-3.1-2.5s-1.4-2.3-1.8-3.7c-0.4-1.4-0.6-2.9-0.6-4.5c0-1.6,0.2-3,0.6-4.5c0.4-1.4,1-2.6,1.8-3.7
		c0.8-1.1,1.9-1.9,3.1-2.5c1.2-0.6,2.7-0.9,4.4-0.9c0.8,0,1.6,0.1,2.4,0.3c0.8,0.2,1.5,0.5,2.2,0.9s1.3,0.9,1.8,1.5
		c0.5,0.6,0.9,1.3,1.2,2.1h0.1V33.4h2.7v30.4H374.5z M359.8,56.2c0.3,1.1,0.7,2.1,1.3,3c0.6,0.9,1.3,1.6,2.2,2.2
		c0.9,0.6,2,0.8,3.3,0.8c1.4,0,2.6-0.3,3.6-0.8c1-0.6,1.8-1.3,2.4-2.2c0.6-0.9,1.1-1.9,1.3-3c0.3-1.1,0.4-2.3,0.4-3.4
		c0-1.1-0.1-2.3-0.4-3.4c-0.3-1.1-0.7-2.1-1.3-3c-0.6-0.9-1.4-1.6-2.4-2.2c-1-0.6-2.2-0.8-3.6-0.8c-1.3,0-2.4,0.3-3.3,0.8
		c-0.9,0.6-1.7,1.3-2.2,2.2c-0.6,0.9-1,1.9-1.3,3c-0.3,1.1-0.4,2.3-0.4,3.4C359.4,54,359.5,55.1,359.8,56.2z"/>
	<path d="M384.6,41.9V47h0.1c0.7-1.8,1.7-3.2,3.2-4.1c1.4-1,3.1-1.4,5.1-1.3v2.7c-1.2-0.1-2.3,0.1-3.3,0.5s-1.9,0.9-2.6,1.6
		c-0.7,0.7-1.3,1.6-1.7,2.5c-0.4,1-0.6,2.1-0.6,3.2v11.7h-2.7v-22H384.6z"/>
	<path d="M398.2,33.4v4.3h-2.7v-4.3H398.2z M398.2,41.9v22h-2.7v-22H398.2z"/>
	<path d="M403.9,41.9l6.9,19.3h0.1l6.8-19.3h2.8l-8.2,22h-2.9l-8.5-22H403.9z"/>
	<path d="M425.1,56.6c0.3,1,0.7,2,1.3,2.8c0.6,0.8,1.3,1.5,2.3,2c0.9,0.5,2,0.8,3.3,0.8c2,0,3.5-0.5,4.6-1.5c1.1-1,1.9-2.4,2.3-4.1
		h2.7c-0.6,2.5-1.6,4.4-3.1,5.8c-1.5,1.4-3.7,2-6.5,2c-1.7,0-3.2-0.3-4.5-0.9s-2.3-1.4-3.1-2.5c-0.8-1.1-1.4-2.3-1.8-3.7
		c-0.4-1.4-0.6-2.9-0.6-4.5c0-1.4,0.2-2.9,0.6-4.3c0.4-1.4,1-2.6,1.8-3.7c0.8-1.1,1.8-2,3.1-2.6c1.3-0.7,2.8-1,4.5-1
		c1.8,0,3.3,0.4,4.5,1.1c1.2,0.7,2.3,1.6,3,2.8c0.8,1.1,1.3,2.5,1.7,4c0.3,1.5,0.5,3,0.4,4.5h-16.9
		C424.7,54.5,424.8,55.5,425.1,56.6z M438.4,48.4c-0.3-0.9-0.8-1.8-1.4-2.5c-0.6-0.7-1.3-1.3-2.2-1.7c-0.9-0.4-1.8-0.7-2.9-0.7
		c-1.1,0-2.1,0.2-2.9,0.7c-0.9,0.4-1.6,1-2.2,1.7c-0.6,0.7-1.1,1.6-1.4,2.5c-0.4,1-0.6,1.9-0.7,2.9h14.2
		C438.9,50.3,438.7,49.3,438.4,48.4z"/>
	<path class="st1" d="M463.1,57.5c-0.2,1.2-0.7,2.3-1.4,3.3c-0.7,1-1.7,1.9-3.1,2.6c-1.3,0.7-3.1,1-5.4,1c-1.3,0-2.5-0.2-3.7-0.5
		c-1.2-0.4-2.3-0.9-3.2-1.7c-0.9-0.8-1.7-1.7-2.3-2.9c-0.6-1.2-0.9-2.6-0.9-4.3v-2.6h6v1.4c0,0.7,0.1,1.4,0.2,2
		c0.1,0.6,0.3,1.2,0.6,1.6c0.3,0.4,0.7,0.8,1.2,1c0.5,0.3,1.1,0.4,1.9,0.4c0.9,0,1.6-0.2,2-0.5c0.5-0.3,0.8-0.7,1-1.2
		c0.2-0.5,0.3-1,0.4-1.6c0-0.6,0.1-1.1,0.1-1.7V33.4h6.7v20.8C463.4,55.2,463.3,56.3,463.1,57.5z"/>
	<path class="st1" d="M466.7,48.1c0.5-1.4,1.3-2.7,2.3-3.7c1-1,2.2-1.8,3.6-2.3c1.4-0.6,3-0.8,4.7-0.8c1.7,0,3.3,0.3,4.7,0.8
		c1.4,0.6,2.6,1.3,3.6,2.3c1,1,1.8,2.2,2.3,3.7c0.5,1.4,0.8,3,0.8,4.8c0,1.8-0.3,3.4-0.8,4.8c-0.5,1.4-1.3,2.6-2.3,3.6
		c-1,1-2.2,1.8-3.6,2.3c-1.4,0.5-3,0.8-4.7,0.8c-1.7,0-3.3-0.3-4.7-0.8c-1.4-0.5-2.6-1.3-3.6-2.3c-1-1-1.8-2.2-2.3-3.6
		c-0.5-1.4-0.8-3-0.8-4.8C465.9,51.1,466.1,49.5,466.7,48.1z M472.2,55.4c0.2,0.8,0.5,1.6,0.9,2.3c0.4,0.7,1,1.2,1.6,1.6
		c0.7,0.4,1.5,0.6,2.6,0.6s1.9-0.2,2.6-0.6c0.7-0.4,1.2-0.9,1.7-1.6c0.4-0.7,0.7-1.4,0.9-2.3c0.2-0.8,0.3-1.7,0.3-2.6
		c0-0.9-0.1-1.7-0.3-2.6s-0.5-1.6-0.9-2.3c-0.4-0.7-1-1.2-1.7-1.6c-0.7-0.4-1.6-0.6-2.6-0.6s-1.9,0.2-2.6,0.6
		c-0.7,0.4-1.2,0.9-1.6,1.6c-0.4,0.7-0.7,1.4-0.9,2.3s-0.3,1.7-0.3,2.6C471.9,53.7,472,54.6,472.2,55.4z"/>
	<path class="st1" d="M496.5,33.4v11.5h0.1c0.8-1.3,1.7-2.2,2.9-2.8s2.4-0.9,3.5-0.9c1.6,0,2.9,0.2,4,0.7c1,0.4,1.9,1.1,2.4,1.8
		c0.6,0.8,1,1.7,1.3,2.9c0.2,1.1,0.4,2.4,0.4,3.7v13.5h-6V51.4c0-1.8-0.3-3.2-0.9-4.1c-0.6-0.9-1.6-1.3-3-1.3
		c-1.6,0-2.8,0.5-3.6,1.5c-0.7,1-1.1,2.6-1.1,4.8v11.5h-6V33.4H496.5z"/>
	<path class="st1" d="M519.3,41.8v3.1h0.1c0.8-1.3,1.8-2.2,3-2.8c1.2-0.6,2.5-0.9,3.7-0.9c1.6,0,2.9,0.2,4,0.7
		c1,0.4,1.9,1.1,2.4,1.8c0.6,0.8,1,1.7,1.3,2.9c0.2,1.1,0.4,2.4,0.4,3.7v13.5h-6V51.4c0-1.8-0.3-3.2-0.9-4.1c-0.6-0.9-1.6-1.3-3-1.3
		c-1.6,0-2.8,0.5-3.6,1.5c-0.7,1-1.1,2.6-1.1,4.8v11.5h-6v-22H519.3z"/>
	<path class="st1" d="M541.8,58.4c0.3,0.5,0.6,0.9,1,1.1c0.4,0.3,0.9,0.5,1.5,0.7c0.6,0.1,1.1,0.2,1.7,0.2c0.4,0,0.9,0,1.3-0.1
		c0.5-0.1,0.9-0.3,1.3-0.5s0.7-0.5,1-0.9c0.3-0.4,0.4-0.8,0.4-1.3c0-0.9-0.6-1.6-1.8-2c-1.2-0.5-2.9-0.9-5-1.4
		c-0.9-0.2-1.7-0.4-2.6-0.7c-0.8-0.3-1.6-0.6-2.2-1.1c-0.7-0.4-1.2-1-1.6-1.7c-0.4-0.7-0.6-1.5-0.6-2.4c0-1.4,0.3-2.6,0.8-3.5
		c0.6-0.9,1.3-1.6,2.2-2.2c0.9-0.5,1.9-0.9,3.1-1.1c1.1-0.2,2.3-0.3,3.5-0.3s2.3,0.1,3.5,0.3c1.1,0.2,2.1,0.6,3,1.2
		c0.9,0.5,1.6,1.3,2.2,2.2c0.6,0.9,0.9,2,1,3.4h-5.8c-0.1-1.2-0.5-2-1.3-2.4c-0.8-0.4-1.7-0.6-2.8-0.6c-0.3,0-0.7,0-1.1,0.1
		c-0.4,0-0.8,0.1-1.1,0.3c-0.3,0.1-0.6,0.3-0.8,0.6c-0.2,0.3-0.3,0.6-0.3,1.1c0,0.5,0.2,1,0.6,1.3c0.4,0.3,0.9,0.6,1.6,0.8
		s1.4,0.4,2.2,0.6s1.7,0.4,2.5,0.6c0.9,0.2,1.7,0.4,2.6,0.7c0.8,0.3,1.6,0.7,2.2,1.1c0.7,0.5,1.2,1.1,1.6,1.7
		c0.4,0.7,0.6,1.6,0.6,2.6c0,1.4-0.3,2.7-0.9,3.6c-0.6,1-1.3,1.8-2.3,2.4c-0.9,0.6-2,1-3.2,1.3c-1.2,0.2-2.4,0.4-3.7,0.4
		c-1.3,0-2.5-0.1-3.7-0.4s-2.3-0.7-3.3-1.3c-1-0.6-1.7-1.4-2.3-2.4c-0.6-1-0.9-2.2-1-3.7h5.8C541.4,57.3,541.5,57.9,541.8,58.4z"/>
	<path class="st1" d="M557.6,48.1c0.5-1.4,1.3-2.7,2.3-3.7c1-1,2.2-1.8,3.6-2.3c1.4-0.6,3-0.8,4.7-0.8c1.7,0,3.3,0.3,4.7,0.8
		c1.4,0.6,2.6,1.3,3.6,2.3c1,1,1.8,2.2,2.3,3.7c0.5,1.4,0.8,3,0.8,4.8c0,1.8-0.3,3.4-0.8,4.8c-0.5,1.4-1.3,2.6-2.3,3.6
		c-1,1-2.2,1.8-3.6,2.3c-1.4,0.5-3,0.8-4.7,0.8c-1.7,0-3.3-0.3-4.7-0.8c-1.4-0.5-2.6-1.3-3.6-2.3c-1-1-1.8-2.2-2.3-3.6
		c-0.5-1.4-0.8-3-0.8-4.8C556.8,51.1,557,49.5,557.6,48.1z M563.1,55.4c0.2,0.8,0.5,1.6,0.9,2.3c0.4,0.7,1,1.2,1.6,1.6
		c0.7,0.4,1.5,0.6,2.6,0.6s1.9-0.2,2.6-0.6c0.7-0.4,1.2-0.9,1.7-1.6c0.4-0.7,0.7-1.4,0.9-2.3c0.2-0.8,0.3-1.7,0.3-2.6
		c0-0.9-0.1-1.7-0.3-2.6s-0.5-1.6-0.9-2.3c-0.4-0.7-1-1.2-1.7-1.6c-0.7-0.4-1.6-0.6-2.6-0.6s-1.9,0.2-2.6,0.6
		c-0.7,0.4-1.2,0.9-1.6,1.6c-0.4,0.7-0.7,1.4-0.9,2.3s-0.3,1.7-0.3,2.6C562.8,53.7,562.9,54.6,563.1,55.4z"/>
	<path class="st1" d="M587.1,41.8v3.1h0.1c0.8-1.3,1.8-2.2,3-2.8c1.2-0.6,2.5-0.9,3.7-0.9c1.6,0,2.9,0.2,4,0.7
		c1,0.4,1.9,1.1,2.4,1.8c0.6,0.8,1,1.7,1.3,2.9c0.2,1.1,0.4,2.4,0.4,3.7v13.5h-6V51.4c0-1.8-0.3-3.2-0.9-4.1c-0.6-0.9-1.6-1.3-3-1.3
		c-1.6,0-2.8,0.5-3.6,1.5c-0.7,1-1.1,2.6-1.1,4.8v11.5h-6v-22H587.1z"/>
	<path class="st1" d="M611.1,33.4v6.5c0,0.9-0.1,1.8-0.4,2.6c-0.3,0.8-0.7,1.5-1.3,2.2c-0.5,0.6-1.2,1.1-1.9,1.6
		c-0.8,0.4-1.6,0.7-2.4,0.8v-2.8c1.1-0.4,1.8-0.9,2.2-1.6c0.4-0.7,0.6-1.6,0.6-2.7h-2.8v-6.6H611.1z"/>
	<path class="st1" d="M616.1,58.4c0.3,0.5,0.6,0.9,1,1.1c0.4,0.3,0.9,0.5,1.5,0.7c0.6,0.1,1.1,0.2,1.7,0.2c0.4,0,0.9,0,1.3-0.1
		c0.5-0.1,0.9-0.3,1.3-0.5s0.7-0.5,1-0.9c0.3-0.4,0.4-0.8,0.4-1.3c0-0.9-0.6-1.6-1.8-2c-1.2-0.5-2.9-0.9-5-1.4
		c-0.9-0.2-1.7-0.4-2.6-0.7c-0.8-0.3-1.6-0.6-2.2-1.1c-0.7-0.4-1.2-1-1.6-1.7c-0.4-0.7-0.6-1.5-0.6-2.4c0-1.4,0.3-2.6,0.8-3.5
		c0.6-0.9,1.3-1.6,2.2-2.2c0.9-0.5,1.9-0.9,3.1-1.1c1.1-0.2,2.3-0.3,3.5-0.3s2.3,0.1,3.5,0.3c1.1,0.2,2.1,0.6,3,1.2
		c0.9,0.5,1.6,1.3,2.2,2.2c0.6,0.9,0.9,2,1,3.4H624c-0.1-1.2-0.5-2-1.3-2.4c-0.8-0.4-1.7-0.6-2.8-0.6c-0.3,0-0.7,0-1.1,0.1
		c-0.4,0-0.8,0.1-1.1,0.3c-0.3,0.1-0.6,0.3-0.8,0.6c-0.2,0.3-0.3,0.6-0.3,1.1c0,0.5,0.2,1,0.6,1.3c0.4,0.3,0.9,0.6,1.6,0.8
		s1.4,0.4,2.2,0.6s1.7,0.4,2.5,0.6c0.9,0.2,1.7,0.4,2.6,0.7c0.8,0.3,1.6,0.7,2.2,1.1c0.7,0.5,1.2,1.1,1.6,1.7
		c0.4,0.7,0.6,1.6,0.6,2.6c0,1.4-0.3,2.7-0.9,3.6c-0.6,1-1.3,1.8-2.3,2.4c-0.9,0.6-2,1-3.2,1.3c-1.2,0.2-2.4,0.4-3.7,0.4
		c-1.3,0-2.5-0.1-3.7-0.4s-2.3-0.7-3.3-1.3c-1-0.6-1.7-1.4-2.3-2.4c-0.6-1-0.9-2.2-1-3.7h5.8C615.7,57.3,615.9,57.9,616.1,58.4z"/>
	<path class="st2" d="M426.6,84.8v83.1h-16v-35.5h-37.7v35.5h-16.1V84.8h16.1v33.6h37.7V84.8H426.6z"/>
	<path class="st2" d="M469.7,169c-4.9,0-9.4-0.8-13.3-2.5c-4-1.7-7.4-3.9-10.2-6.8c-2.8-2.9-5-6.2-6.4-9.9
		c-1.5-3.7-2.2-7.7-2.2-11.9c0-5.7,1.3-11,3.9-15.8c2.6-4.8,6.3-8.7,11.1-11.6c4.8-2.9,10.5-4.3,17.3-4.3c6.6,0,12.3,1.4,17.1,4.3
		c4.8,2.9,8.4,6.7,11,11.4c2.6,4.7,3.9,9.9,3.9,15.4c0,1,0,2-0.1,2.8c-0.1,0.9-0.2,1.6-0.2,2.3h-47.3c0.2,3.2,1.1,5.9,2.6,8.2
		s3.5,4,5.8,5.2c2.4,1.2,4.9,1.8,7.5,1.8c3.2,0,6.2-0.8,9-2.3c2.8-1.5,4.7-3.6,5.7-6.1l13.3,3.7c-1.4,3.1-3.5,5.9-6.2,8.3
		c-2.7,2.4-6,4.3-9.7,5.7C478.5,168.3,474.3,169,469.7,169z M453.7,132.6h32.1c-0.3-3-1.2-5.7-2.6-7.9c-1.4-2.2-3.3-4-5.7-5.3
		s-5-1.9-7.8-1.9c-2.8,0-5.4,0.6-7.7,1.9c-2.3,1.3-4.2,3-5.6,5.3C454.9,126.9,454,129.6,453.7,132.6z"/>
	<path class="st2" d="M511.3,82.4h15.7v65.8c0,2.9,0.5,4.8,1.4,5.8s2.2,1.5,3.7,1.5c1.4,0,2.7-0.2,4-0.5c1.3-0.3,2.4-0.7,3.5-1.3
		l2.1,12.1c-2.1,1-4.5,1.8-7.3,2.3c-2.8,0.5-5.3,0.8-7.7,0.8c-4.9,0-8.7-1.3-11.4-3.9c-2.7-2.6-4-6.3-4-11.1V82.4z"/>
	<path class="st2" d="M585.2,169c-4.8,0-9-1.1-12.6-3.2c-3.7-2.2-6.5-5-8.5-8.6v35.6h-15.6v-85.6h13.7v10.5c2.3-3.5,5.3-6.3,8.9-8.4
		c3.6-2,7.7-3.1,12.3-3.1c4.1,0,7.9,0.8,11.4,2.4c3.5,1.6,6.5,3.9,9.1,6.8c2.6,2.9,4.6,6.2,6,10c1.4,3.8,2.1,7.8,2.1,12
		c0,5.9-1.2,11.2-3.5,16c-2.3,4.8-5.5,8.6-9.5,11.4C595.1,167.6,590.4,169,585.2,169z M579.9,155.7c2.3,0,4.5-0.5,6.5-1.5
		c2-1,3.7-2.3,5.1-4c1.4-1.7,2.5-3.7,3.3-5.9c0.8-2.3,1.2-4.6,1.2-6.9c0-2.4-0.4-4.8-1.2-6.9c-0.8-2.2-2-4.1-3.6-5.7
		c-1.6-1.6-3.4-2.9-5.4-3.8c-2.1-0.9-4.3-1.4-6.8-1.4c-1.4,0-2.9,0.2-4.4,0.7s-3,1.2-4.4,2.1c-1.4,0.9-2.6,2-3.6,3.1
		c-1,1.2-1.8,2.5-2.5,4v14.2c1,2.2,2.3,4.2,3.9,6.1c1.6,1.8,3.5,3.3,5.6,4.3C575.6,155.1,577.8,155.7,579.9,155.7z"/>
	<path class="st2" d="M647.2,125.6c0-5.1,0.9-10.2,2.8-15c1.8-4.9,4.5-9.3,8.1-13.3c3.5-4,7.9-7.2,12.9-9.5
		c5.1-2.4,10.8-3.6,17.2-3.6c7.6,0,14.3,1.7,19.8,5c5.6,3.4,9.7,7.7,12.3,13.1l-12.3,8.5c-1.4-3.1-3.2-5.6-5.5-7.4
		c-2.3-1.8-4.7-3.1-7.3-3.9c-2.6-0.8-5.1-1.2-7.5-1.2c-4.1,0-7.6,0.8-10.6,2.5c-3,1.6-5.5,3.8-7.5,6.4c-2,2.7-3.5,5.6-4.5,8.9
		c-1,3.3-1.5,6.6-1.5,9.9c0,3.6,0.6,7.1,1.8,10.5s2.8,6.4,5,9c2.1,2.6,4.7,4.7,7.7,6.2c3,1.5,6.3,2.3,9.9,2.3c2.5,0,5.1-0.4,7.7-1.3
		c2.7-0.9,5.1-2.2,7.4-4.1c2.3-1.9,4.1-4.3,5.5-7.4l13.1,7.7c-1.7,4.1-4.4,7.6-8.1,10.5c-3.7,2.9-7.8,5.1-12.4,6.6
		c-4.6,1.5-9.1,2.2-13.6,2.2c-5.9,0-11.3-1.2-16.2-3.7c-4.9-2.5-9.1-5.7-12.7-9.8c-3.6-4.1-6.4-8.7-8.4-13.8
		C648.2,136,647.2,130.8,647.2,125.6z"/>
	<path class="st2" d="M759.2,169c-4.9,0-9.4-0.8-13.3-2.5c-4-1.7-7.4-3.9-10.2-6.8c-2.8-2.9-5-6.2-6.4-9.9
		c-1.5-3.7-2.2-7.7-2.2-11.9c0-5.7,1.3-11,3.9-15.8c2.6-4.8,6.3-8.7,11.1-11.6s10.5-4.3,17.3-4.3c6.6,0,12.3,1.4,17.1,4.3
		c4.8,2.9,8.4,6.7,11,11.4c2.6,4.7,3.9,9.9,3.9,15.4c0,1,0,2-0.1,2.8c-0.1,0.9-0.2,1.6-0.2,2.3h-47.3c0.2,3.2,1.1,5.9,2.6,8.2
		c1.5,2.2,3.5,4,5.8,5.2c2.4,1.2,4.9,1.8,7.5,1.8c3.2,0,6.2-0.8,9-2.3c2.8-1.5,4.7-3.6,5.7-6.1l13.3,3.7c-1.4,3.1-3.5,5.9-6.2,8.3
		c-2.7,2.4-6,4.3-9.7,5.7C768,168.3,763.8,169,759.2,169z M743.2,132.6h32.1c-0.3-3-1.2-5.7-2.6-7.9c-1.4-2.2-3.3-4-5.7-5.3
		s-5-1.9-7.8-1.9c-2.8,0-5.4,0.6-7.7,1.9c-2.3,1.3-4.2,3-5.6,5.3C744.3,126.9,743.5,129.6,743.2,132.6z"/>
	<path class="st2" d="M857.8,167.8h-15.7v-33.9c0-4.8-0.8-8.4-2.5-10.6c-1.7-2.2-4.1-3.3-7.2-3.3c-2.1,0-4.2,0.5-6.4,1.6
		c-2.1,1.1-4.1,2.5-5.7,4.4c-1.7,1.9-3,4-3.9,6.5v35.4h-15.6v-60.7H815v11.3c1.6-2.6,3.5-4.8,6-6.6c2.4-1.8,5.2-3.2,8.3-4.2
		c3.1-1,6.5-1.5,10.1-1.5c3.8,0,7,0.7,9.4,2s4.3,3.2,5.6,5.5c1.3,2.3,2.2,4.9,2.7,7.7c0.5,2.8,0.8,5.6,0.8,8.5V167.8z"/>
	<path class="st2" d="M907.9,164.8c-1.4,0.6-3,1.3-4.9,1.9c-1.8,0.7-3.8,1.2-6,1.6c-2.1,0.4-4.3,0.6-6.5,0.6c-3,0-5.7-0.5-8.1-1.5
		c-2.4-1-4.3-2.6-5.8-4.8c-1.4-2.2-2.2-5.1-2.2-8.6v-35h-8v-11.9h8V87.2h15.8v19.9h12.9V119h-12.9v29.7c0.1,2.1,0.7,3.6,1.8,4.6
		c1.1,1,2.5,1.4,4.2,1.4c1.6,0,3.1-0.3,4.7-0.9c1.6-0.6,2.8-1.1,3.9-1.6L907.9,164.8z"/>
	<path class="st2" d="M952.7,120.1c-4.8,0.1-9.1,1-12.9,2.7c-3.7,1.8-6.5,4.3-8.2,7.8v37.2h-15.6v-60.7h14.4v12.5
		c2.2-4.2,5-7.5,8.4-9.9c3.4-2.4,7-3.7,10.7-4c0.8,0.1,1.4,0.1,1.9,0.1c0.5,0,0.9,0,1.3,0.2V120.1z"/>
	<path class="st2" d="M989,169c-4.9,0-9.4-0.8-13.3-2.5c-4-1.7-7.4-3.9-10.2-6.8c-2.8-2.9-5-6.2-6.4-9.9c-1.5-3.7-2.2-7.7-2.2-11.9
		c0-5.7,1.3-11,3.9-15.8c2.6-4.8,6.3-8.7,11.1-11.6s10.5-4.3,17.3-4.3c6.6,0,12.3,1.4,17.1,4.3c4.8,2.9,8.4,6.7,11,11.4
		c2.6,4.7,3.9,9.9,3.9,15.4c0,1,0,2-0.1,2.8c-0.1,0.9-0.2,1.6-0.2,2.3h-47.3c0.2,3.2,1.1,5.9,2.6,8.2c1.5,2.2,3.5,4,5.8,5.2
		c2.4,1.2,4.9,1.8,7.5,1.8c3.2,0,6.2-0.8,9-2.3c2.8-1.5,4.7-3.6,5.7-6.1l13.3,3.7c-1.4,3.1-3.5,5.9-6.2,8.3c-2.7,2.4-6,4.3-9.7,5.7
		C997.8,168.3,993.6,169,989,169z M972.9,132.6h32.1c-0.3-3-1.2-5.7-2.6-7.9c-1.4-2.2-3.3-4-5.7-5.3s-5-1.9-7.8-1.9
		c-2.8,0-5.4,0.6-7.7,1.9c-2.3,1.3-4.2,3-5.6,5.3C974.1,126.9,973.3,129.6,972.9,132.6z"/>
</g>
</svg>
